<?xml version="1.0" encoding="UTF-8"?>
<svg width="950px" height="653px" viewBox="0 0 950 653" version="1.1" xmlns="http://www.w3.org/2000/svg" xmlns:xlink="http://www.w3.org/1999/xlink">
    <!-- Generator: Sketch 55.2 (78181) - https://sketchapp.com -->
    <title>17750</title>
    <desc>Created with Sketch.</desc>
    <g id="17750" stroke="none" stroke-width="1" fill="none" fill-rule="evenodd">
        <polygon id="Fill-1" fill="#EEEEEE" points="0 653 950 653 950 0 0 0"></polygon>
        <g id="Group-2" transform="translate(281.000000, 253.000000)" fill="#BBBABA">
            <path d="M274.613623,56.3812565 L225.821331,24.501044 C225.262161,24.1359419 224.624636,23.9778149 223.999831,24.0024908 C223.374517,23.9778149 222.736483,24.1359419 222.177822,24.501044 L173.387057,56.3812565 C171.966491,57.3098748 171.571154,59.2204919 172.509379,60.6270163 C173.447604,62.0335407 175.377988,62.4243258 176.799063,61.4957075 L223.999322,30.6543994 L271.199582,61.4957075 C272.619131,62.4243258 274.552567,62.0335407 275.488757,60.6270163 C276.430035,59.2204919 276.033172,57.3098748 274.613623,56.3812565" id="Fill-5"></path>
            <path d="M269.209436,145 L45.7905638,145 C44.801661,145 44,145.671571 44,146.5 C44,147.328429 44.801661,148 45.7905638,148 L269.209436,148 C270.20192,148 271,147.328429 271,146.5 C271,145.671571 270.20192,145 269.209436,145" id="Fill-10"></path>
            <path d="M384.218662,145 L333.781338,145 C332.793968,145 332,145.671571 332,146.5 C332,147.328429 332.793968,148 333.781338,148 L384.218662,148 C385.200943,148 386,147.328429 386,146.5 C386,145.671571 385.200943,145 384.218662,145" id="Fill-12"></path>
            <path d="M220.000893,27.7301827 C220.3442,27.7301827 220.687506,27.828484 220.986367,28.0250864 L268.379583,59.2181524 C268.670781,59.4096615 269.023284,59.4758748 269.370678,59.4055869 C269.718072,59.3347896 270.014378,59.1356405 270.20851,58.8448115 C270.402642,58.5544918 270.469056,58.2030522 270.397533,57.8561966 C270.326011,57.509341 270.12677,57.2124 269.835573,57.0208909 L220.844345,24.7770714 C220.558766,24.5886183 220.266547,24.5611143 220.071904,24.5662077 C220.024904,24.568245 219.976882,24.568245 219.929881,24.5662077 C219.733195,24.5585677 219.44353,24.5886183 219.156419,24.7775807 L170.167745,57.0208909 C169.876037,57.2124 169.676285,57.509341 169.605274,57.8561966 C169.533751,58.2030522 169.600676,58.5544918 169.793275,58.8448115 C169.985874,59.1356405 170.283203,59.3347896 170.631107,59.4055869 C170.979012,59.4763841 171.332026,59.4101709 171.622713,59.2181524 L219.015418,28.0250864 C219.314279,27.828484 219.657586,27.7301827 220.000893,27.7301827 Z M269.089697,63 C268.144582,63 267.214792,62.7249084 266.407612,62.1936744 L220.000893,31.648989 L173.593152,62.1936744 C172.50448,62.9103056 171.199199,63.1608973 169.913841,62.8985909 C168.630016,62.6367939 167.527551,61.894696 166.808753,60.8093079 C165.321089,58.5626411 165.944355,55.5285459 168.197306,54.0453689 L217.18598,21.8015495 C218.022791,21.2514701 219.005711,20.9810144 220.000893,21.0013877 C221.006292,20.9779584 221.980016,21.2514701 222.815805,21.8020588 L271.802435,54.0453689 C274.055387,55.5285459 274.678653,58.5626411 273.192011,60.8093079 C272.476788,61.894696 271.373302,62.6367939 270.085901,62.8985909 C269.753833,62.9663322 269.421765,63 269.089697,63 L269.089697,63 Z" id="Fill-15"></path>
            <path d="M220.500258,45.6054253 C215.044734,45.6054253 210.605425,50.0442189 210.605425,55.4997425 C210.605425,60.9557811 215.044734,65.3945747 220.500258,65.3945747 C225.956296,65.3945747 230.394575,60.9557811 230.394575,55.4997425 C230.394575,50.0442189 225.956296,45.6054253 220.500258,45.6054253 Z M220.500258,69 C213.056084,69 207,62.9439156 207,55.4997425 C207,48.0560844 213.056084,42 220.500258,42 C227.943916,42 234,48.0560844 234,55.4997425 C234,62.9439156 227.943916,69 220.500258,69 L220.500258,69 Z" id="Fill-21"></path>
            <path d="M220.5,69 C219.672,69 219,68.1928998 219,67.1972873 L219,43.8027127 C219,42.8071002 219.672,42 220.5,42 C221.328429,42 222,42.8071002 222,43.8027127 L222,67.1972873 C222,68.1928998 221.328429,69 220.5,69" id="Fill-22"></path>
            <path d="M232.191284,57 L208.808716,57 C207.810305,57 207,56.3288571 207,55.5 C207,54.6715714 207.810305,54 208.808716,54 L232.191284,54 C233.190212,54 234,54.6715714 234,55.5 C234,56.3288571 233.190212,57 232.191284,57" id="Fill-23"></path>
            <path d="M87.3983789,60.6532512 C87.2620108,60.6532512 87.1379466,60.6908259 87.0277243,60.7649317 L47.8967474,87.0620495 C47.5850489,87.27132 47.4958457,87.7159548 47.7014231,88.0332528 C47.8362533,88.2409577 48.0326028,88.3088011 48.1382112,88.3307197 C48.2438195,88.3526383 48.4504223,88.3693382 48.6549744,88.2320859 L86.5114736,62.7913598 C87.1112882,62.3884748 87.8895091,62.3884748 88.4893236,62.7913598 L126.344797,88.2320859 C126.548837,88.3693382 126.75544,88.3531602 126.861561,88.3307197 C126.967169,88.3088011 127.164031,88.2409577 127.298349,88.0332528 C127.504439,87.7159548 127.414723,87.27132 127.103537,87.0615276 L87.9725603,60.7649317 C87.8254263,60.6652542 87.6706024,60.6501199 87.5716586,60.653773 C87.5239811,60.6558605 87.4768162,60.6558605 87.4286259,60.653773 C87.4188854,60.653773 87.4081195,60.6532512 87.3983789,60.6532512 Z M48.2889338,92 C48.0003051,92 47.7091131,91.9702533 47.4189464,91.9097162 C46.297242,91.6759176 45.3339501,91.0136624 44.7059392,90.0455903 C43.4073663,88.0426465 43.9513007,85.3362196 45.9188974,84.0132747 L85.0498743,57.7161569 C85.778367,57.2266412 86.6319492,56.9777084 87.5003986,57.0017145 C88.3801266,56.9766647 89.2224302,57.2266412 89.9504103,57.7166788 L129.080874,84.0132747 C131.048984,85.3362196 131.592918,88.0426465 130.29332,90.0455903 C129.666334,91.0136624 128.703043,91.6759176 127.580826,91.9097162 C126.459634,92.1429929 125.318448,91.9201536 124.36746,91.2803389 L87.5003986,66.5044773 L50.6328244,91.2808607 C49.9274015,91.7547203 49.1179082,92 48.2889338,92 L48.2889338,92 Z" id="Fill-32"></path>
            <path d="M88.5,78.5008079 C86.8466185,78.5008079 85.5008079,79.8461183 85.5008079,81.5 C85.5008079,83.1538817 86.8466185,84.4991921 88.5,84.4991921 C90.1538817,84.4991921 91.4991921,83.1538817 91.4991921,81.5 C91.4991921,79.8461183 90.1538817,78.5008079 88.5,78.5008079 Z M88.5,88 C84.9156728,88 82,85.0843272 82,81.5 C82,77.916173 84.9156728,75 88.5,75 C92.0843272,75 95,77.916173 95,81.5 C95,85.0843272 92.0843272,88 88.5,88 L88.5,88 Z" id="Fill-33"></path>
            <path d="M122.226551,133 L53.7734489,133 C52.7945051,133 52,132.188775 52,131.188074 L52,86.8119264 C52,85.8112253 52.7945051,85 53.7734489,85 C54.7528994,85 55.5468979,85.8112253 55.5468979,86.8119264 L55.5468979,129.376147 L120.453102,129.376147 L120.453102,86.8119264 C120.453102,85.8112253 121.247101,85 122.226551,85 C123.206002,85 124,85.8112253 124,86.8119264 L124,131.188074 C124,132.188775 123.206002,133 122.226551,133" id="Fill-34"></path>
            <path d="M111.198254,131 C110.20369,131 109.396508,130.196627 109.396508,129.205613 L109.396508,96.588775 L66.6034923,96.588775 L66.6034923,129.205613 C66.6034923,130.196627 65.7968248,131 64.8017461,131 C63.8071823,131 63,130.196627 63,129.205613 L63,94.7943875 C63,93.8033729 63.8071823,93 64.8017461,93 L111.198254,93 C112.193333,93 113,93.8033729 113,94.7943875 L113,129.205613 C113,130.196627 112.193333,131 111.198254,131" id="Fill-35"></path>
            <path d="M110.712261,102 L64.2877386,102 C63.5763918,102 63,101.3286 63,100.5 C63,99.672 63.5763918,99 64.2877386,99 L110.712261,99 C111.423608,99 112,99.672 112,100.5 C112,101.3286 111.423608,102 110.712261,102" id="Fill-36"></path>
            <path d="M110.712261,106 L64.2877386,106 C63.5763918,106 63,105.3286 63,104.5 C63,103.6714 63.5763918,103 64.2877386,103 L110.712261,103 C111.423608,103 112,103.6714 112,104.5 C112,105.3286 111.423608,106 110.712261,106" id="Fill-37"></path>
            <path d="M110.712261,112 L64.2877386,112 C63.5763918,112 63,111.328 63,110.5 C63,109.6714 63.5763918,109 64.2877386,109 L110.712261,109 C111.423608,109 112,109.6714 112,110.5 C112,111.328 111.423608,112 110.712261,112" id="Fill-38"></path>
            <path d="M110.712261,117 L64.2877386,117 C63.5763918,117 63,116.3286 63,115.5 C63,114.6714 63.5763918,114 64.2877386,114 L110.712261,114 C111.423608,114 112,114.6714 112,115.5 C112,116.3286 111.423608,117 110.712261,117" id="Fill-39"></path>
            <path d="M110.712261,122 L64.2877386,122 C63.5763918,122 63,121.328 63,120.5 C63,119.6714 63.5763918,119 64.2877386,119 L110.712261,119 C111.423608,119 112,119.6714 112,120.5 C112,121.328 111.423608,122 110.712261,122" id="Fill-40"></path>
            <path d="M110.712261,127 L64.2877386,127 C63.5763918,127 63,126.3286 63,125.5 C63,124.6714 63.5763918,124 64.2877386,124 L110.712261,124 C111.423608,124 112,124.6714 112,125.5 C112,126.3286 111.423608,127 110.712261,127" id="Fill-41"></path>
            <g id="Group" transform="translate(357.000000, 10.000000)">
                <path d="M15.1696721,123.856099 C14.1837705,123.856099 13.3909836,123.056477 13.3909836,122.070091 L13.3909836,36.4764115 C13.3909836,35.4900247 14.1837705,34.6904033 15.1696721,34.6904033 C16.1504918,34.6904033 16.9483607,35.4900247 16.9483607,36.4764115 L16.9483607,122.070091 C16.9483607,123.056477 16.1504918,123.856099 15.1696721,123.856099" id="Fill-42"></path>
                <path d="M15.1696721,54.1680988 C14.7122951,54.1680988 14.254918,53.9935802 13.9093443,53.6450535 L6.93180328,46.6372675 C6.23557377,45.9397037 6.23557377,44.8089053 6.93180328,44.1113416 C7.62295082,43.4137778 8.75114754,43.4132675 9.44229508,44.1113416 L16.424918,51.1191276 C17.1211475,51.8161811 17.1211475,52.9474897 16.424918,53.6445432 C16.0793443,53.9935802 15.6219672,54.1680988 15.1696721,54.1680988" id="Fill-43"></path>
                <path d="M15.1645902,67.2432099 C14.8139344,67.2432099 14.4632787,67.1396214 14.1532787,66.9232593 C13.3452459,66.3604115 13.1470492,65.2474733 13.7060656,64.4376461 L21.3595082,53.3842963 C21.9185246,52.5744691 23.0263934,52.3739259 23.8344262,52.937284 C24.642459,53.500642 24.8406557,54.6135802 24.2816393,55.4234074 L16.6281967,66.4762469 C16.282623,66.9753086 15.7286885,67.2432099 15.1645902,67.2432099" id="Fill-44"></path>
                <path d="M15.3678689,4.18334156 C13.5180328,5.56060905 9.78786885,15.1530041 6.68278689,33.6034897 C3.82163934,50.6251687 2.98311475,66.3410206 4.58901639,72.7104362 C7.1604918,82.88507 13.6196721,85.9422058 15.3729508,86.5963951 C17.1567213,85.9371029 23.5701639,82.9070123 26.1467213,72.7104362 C27.7577049,66.3410206 26.9140984,50.6251687 24.0529508,33.6034897 C20.9478689,15.1530041 17.2227869,5.56060905 15.3678689,4.18334156 Z M15.3678689,90.2602634 C15.2204918,90.2602634 15.0680328,90.2413827 14.9206557,90.2036214 C14.5039344,90.0944198 4.62967213,87.3812181 1.14344262,73.5891523 C-2.40377049,59.5541893 4.9752459,11.7345844 12.1103279,2.52388477 C12.8421311,1.57832099 13.6247541,0.958831276 14.4429508,0.672049383 C14.6767213,0.55417284 14.9460656,0.487835391 15.2306557,0.487835391 L15.5101639,0.487835391 C15.7896721,0.487835391 16.0590164,0.55417284 16.2978689,0.672049383 C17.1109836,0.958831276 17.8936066,1.57832099 18.6254098,2.52388477 C25.7604918,11.7345844 33.1445902,59.5541893 29.597377,73.5891523 C26.1111475,87.3812181 16.2318033,90.0944198 15.815082,90.2036214 C15.6677049,90.2413827 15.5203279,90.2602634 15.3678689,90.2602634 L15.3678689,90.2602634 Z" id="Fill-45"></path>
            </g>
            <path d="M14.5,136 C13.6715714,136 13,135.198207 13,134.209142 L13,48.7908577 C13,47.8017926 13.6715714,47 14.5,47 C15.328,47 16,47.8017926 16,48.7908577 L16,134.209142 C16,135.198207 15.328,136 14.5,136" id="Fill-46"></path>
            <path d="M14.3067871,67 C13.8733401,67 13.4403768,66.8345288 13.1094865,66.5040703 L6.4960332,59.8910285 C5.83473625,59.2296276 5.83473625,58.1574516 6.49554944,57.4960507 C7.15733015,56.8346498 8.22885375,56.8346498 8.89063446,57.4960507 L15.503604,64.1090924 C16.1653847,64.7700096 16.1653847,65.8421855 15.5040877,66.5035864 C15.1736811,66.8345288 14.7397504,67 14.3067871,67" id="Fill-47"></path>
            <path d="M14.7499456,80 C14.4047334,80 14.0565195,79.9004858 13.7518322,79.6931237 C12.9578443,79.1519234 12.7612235,78.0827586 13.3135629,77.3047831 L20.8106699,66.73667 C21.3630093,65.9586945 22.4536795,65.7660389 23.2481678,66.3072393 C24.0421557,66.8479494 24.2387765,67.9176044 23.6864371,68.6955799 L16.1893301,79.2632028 C15.849121,79.7431259 15.3037859,80 14.7499456,80" id="Fill-48"></path>
            <path d="M14.9998859,17.6906728 C13.4557252,18.9419034 9.73710309,27.03272 6.41020754,46.8465812 C3.57865652,63.7122749 2.74617446,79.2840477 4.33936418,85.5940716 C6.8888721,95.694887 13.2313038,98.697942 14.9998859,99.3515092 C16.768468,98.697942 23.1114051,95.694887 25.660913,85.5940716 C27.2541028,79.2835395 26.4216207,63.7122749 23.5900697,46.846073 C20.2626687,27.03272 16.5445521,18.9419034 14.9998859,17.6906728 Z M14.9998859,103 C14.8507771,103 14.7026792,102.981196 14.5566031,102.94308 C14.1421311,102.835338 4.36210959,100.144836 0.909356105,86.4687132 C-2.60253545,72.5562693 4.70480713,25.1518085 11.769532,16.0211795 C12.4953633,15.0819943 13.2692128,14.4675598 14.0789494,14.1829582 C14.3149963,14.06556 14.5803594,14 14.8613916,14 L15.1388856,14 C15.4194124,14 15.685281,14.06556 15.9213278,14.1829582 C16.7310644,14.4675598 17.5044084,15.0819943 18.2312507,16.0211795 C25.2954701,25.1518085 32.6028127,72.5562693 29.0904157,86.4687132 C25.6381676,100.144836 15.8581461,102.835338 15.4431687,102.94308 C15.2975981,102.981196 15.1489947,103 14.9998859,103 L14.9998859,103 Z" id="Fill-49"></path>
            <path d="M259.209987,133 L180.790013,133 C179.801926,133 179,132.197824 179,131.208285 L179,56.7917148 C179,55.8021763 179.801926,55 180.790013,55 C181.778612,55 182.580027,55.8021763 182.580027,56.7917148 L182.580027,129.41657 L257.419973,129.41657 L257.419973,56.7917148 C257.419973,55.8021763 258.222922,55 259.209987,55 C260.197051,55 261,55.8021763 261,56.7917148 L261,131.208285 C261,132.197824 260.197051,133 259.209987,133" id="Fill-50"></path>
            <path d="M319.20862,57 L271.233562,57 C270.24048,57 269.44192,56.1980697 269.44192,55.2088346 C269.44192,54.2190878 270.24048,53.4176692 271.233562,53.4176692 L316.792462,53.4176692 L301.676121,3.58233076 L139.324164,3.58233076 L124.207311,53.4176692 L169.390479,53.4176692 C170.379977,53.4176692 171.182121,54.2190878 171.182121,55.2088346 C171.182121,56.1980697 170.379977,57 169.390479,57 L121.791666,57 C121.224483,57 120.690573,56.7313252 120.352721,56.2753457 C120.014356,55.8198779 119.912489,55.2313521 120.07732,54.6888849 L136.280932,1.27172742 C136.50975,0.516367391 137.205931,0 137.995277,0 L303.001937,0 C303.790259,0 304.48644,0.516367391 304.716794,1.27172742 L320.923477,54.6888849 C321.087285,55.2313521 320.984905,55.8198779 320.647052,56.2753457 C320.3092,56.7313252 319.771707,57 319.20862,57" id="Fill-51"></path>
            <path d="M310.88415,132 L128.788741,132 C127.801356,132 127,131.197587 127,130.207758 L127,54.7922425 C127,53.8019005 127.801356,53 128.788741,53 C129.776638,53 130.577483,53.8019005 130.577483,54.7922425 L130.577483,128.415515 L309.10563,128.415515 L309.422493,54.7840494 C309.427603,53.7972919 310.229982,53 311.211234,53 C311.216345,53 311.216345,53 311.221456,53 C312.207819,53.0040966 313.005086,53.8100936 313,54.7999235 L312.672891,130.215439 C312.672891,131.202196 311.870513,132 310.88415,132" id="Fill-52"></path>
            <path d="M234.207197,132 C233.217057,132 232.414394,131.197959 232.414394,130.208587 L232.414394,84.5828265 L207.585606,84.5828265 L207.585606,129.348197 C207.585606,130.337568 206.782943,131.13961 205.792803,131.13961 C204.803176,131.13961 204,130.337568 204,129.348197 L204,82.7914133 C204,81.8020413 204.803176,81 205.792803,81 L234.207197,81 C235.197336,81 236,81.8020413 236,82.7914133 L236,130.208587 C236,131.197959 235.197336,132 234.207197,132" id="Fill-53"></path>
            <path d="M146.514203,101.39239 L163.485797,101.39239 L163.485797,73.6076098 L146.514203,73.6076098 L146.514203,101.39239 Z M165.242898,105 L144.757102,105 C143.787182,105 143,104.192411 143,103.196195 L143,71.8038049 C143,70.8075892 143.787182,70 144.757102,70 L165.242898,70 C166.213321,70 167,70.8075892 167,71.8038049 L167,103.196195 C167,104.192411 166.213321,105 165.242898,105 L165.242898,105 Z" id="Fill-54"></path>
            <path d="M276.513909,101.39239 L293.486091,101.39239 L293.486091,73.6076098 L276.513909,73.6076098 L276.513909,101.39239 Z M295.243045,105 L274.756955,105 C273.78812,105 273,104.192411 273,103.196195 L273,71.8038049 C273,70.8075892 273.78812,70 274.756955,70 L295.243045,70 C296.21188,70 297,70.8075892 297,71.8038049 L297,103.196195 C297,104.192411 296.21188,105 295.243045,105 L295.243045,105 Z" id="Fill-55"></path>
            <path d="M315.591837,128.440884 L352.408163,128.440884 L352.408163,94.559116 L315.591837,94.559116 L315.591837,128.440884 Z M354.204082,132 L313.795918,132 C312.800466,132 312,131.203266 312,130.220442 L312,92.779558 C312,91.7967335 312.800466,91 313.795918,91 L354.204082,91 C355.194402,91 356,91.7967335 356,92.779558 L356,130.220442 C356,131.203266 355.194402,132 354.204082,132 L354.204082,132 Z" id="Fill-58"></path>
            <path d="M318.5,132 C317.672857,132 317,131.203266 317,130.220442 L317,92.779558 C317,91.7967335 317.672857,91 318.5,91 C319.327143,91 320,91.7967335 320,92.779558 L320,130.220442 C320,131.203266 319.327143,132 318.5,132" id="Fill-59"></path>
            <path d="M324.5,132 C323.672857,132 323,131.203266 323,130.220442 L323,92.779558 C323,91.7967335 323.672857,91 324.5,91 C325.327143,91 326,91.7967335 326,92.779558 L326,130.220442 C326,131.203266 325.327143,132 324.5,132" id="Fill-60"></path>
            <path d="M330.5,132 C329.672857,132 329,131.203266 329,130.220442 L329,92.779558 C329,91.7967335 329.672857,91 330.5,91 C331.331429,91 332,91.7967335 332,92.779558 L332,130.220442 C332,131.203266 331.331429,132 330.5,132" id="Fill-61"></path>
            <path d="M336.5,132 C335.668571,132 335,131.203266 335,130.220442 L335,92.779558 C335,91.7967335 335.668571,91 336.5,91 C337.327143,91 338,91.7967335 338,92.779558 L338,130.220442 C338,131.203266 337.327143,132 336.5,132" id="Fill-62"></path>
            <path d="M342.5,132 C341.672857,132 341,131.203266 341,130.220442 L341,92.779558 C341,91.7967335 341.672857,91 342.5,91 C343.327143,91 344,91.7967335 344,92.779558 L344,130.220442 C344,131.203266 343.327143,132 342.5,132" id="Fill-63"></path>
            <path d="M347.5,132 C346.672857,132 346,131.203266 346,130.220442 L346,92.779558 C346,91.7967335 346.672857,91 347.5,91 C348.327143,91 349,91.7967335 349,92.779558 L349,130.220442 C349,131.203266 348.327143,132 347.5,132" id="Fill-64"></path>
            <path d="M34.5,148 C33.672,148 33,147.201804 33,146.217176 L33,104.782824 C33,103.797686 33.672,103 34.5,103 C35.3284286,103 36,103.797686 36,104.782824 L36,146.217176 C36,147.201804 35.3284286,148 34.5,148" id="Fill-65"></path>
            <path d="M35.1254907,114 C34.647744,114 34.1699973,113.818382 33.8047246,113.453534 L29.5532077,109.214526 C28.8189132,108.482681 28.8151641,107.291954 29.5446383,106.554736 C30.274648,105.818054 31.462052,105.81483 32.1958109,106.546676 L36.4467923,110.785683 C37.1810868,111.517529 37.1848359,112.708793 36.4553617,113.445474 C36.0890179,113.815158 35.6075221,114 35.1254907,114" id="Fill-66"></path>
            <path d="M34.6953182,122 C34.369539,122 34.0403662,121.898947 33.7494918,121.689028 C32.9723725,121.126466 32.7658517,119.994048 33.2894256,119.158539 L37.8954209,111.805119 C38.4189947,110.969089 39.4729294,110.749273 40.2500487,111.310794 C41.0276528,111.872835 41.2341736,113.005773 40.7105998,113.841283 L36.1046045,121.194181 C35.776886,121.717677 35.2407076,122 34.6953182,122" id="Fill-67"></path>
            <path d="M34.5002558,97.5811177 C27.376901,97.5811177 21.5811177,103.376389 21.5811177,110.499744 C21.5811177,117.623099 27.376901,123.418882 34.5002558,123.418882 C41.6236106,123.418882 47.4188823,117.623099 47.4188823,110.499744 C47.4188823,103.376389 41.6236106,97.5811177 34.5002558,97.5811177 Z M34.5002558,127 C25.4021704,127 18,119.59783 18,110.499744 C18,101.401659 25.4021704,94 34.5002558,94 C43.5988528,94 51,101.401659 51,110.499744 C51,119.59783 43.5988528,127 34.5002558,127 L34.5002558,127 Z" id="Fill-68"></path>
        </g>
    </g>
</svg>